<?xml version="1.0" encoding="iso-8859-1"?>
<!-- Generator: Adobe Illustrator 19.0.0, SVG Export Plug-In . SVG Version: 6.00 Build 0)  -->
<svg version="1.1" id="Layer_1" xmlns="http://www.w3.org/2000/svg" xmlns:xlink="http://www.w3.org/1999/xlink" x="0px" y="0px"
	 viewBox="0 0 512 512" style="enable-background:new 0 0 512 512;" xml:space="preserve">
<circle style="fill:#0082D1;" cx="255.996" cy="255.997" r="255.996"/>
<path style="fill:#004DB1;" d="M512,256c0-14.412-1.21-28.54-3.499-42.303l-151-151H129.067V74.06h-14.02v362.008l64.229,64.228
	c24.224,7.6,49.995,11.704,76.725,11.704C397.385,512,512,397.385,512,256z"/>
<polygon style="fill:#C8C6CC;" points="129.067,424.706 424.354,424.706 424.354,129.551 357.5,62.698 129.067,62.698 "/>
<polygon style="fill:#AEADB3;" points="424.354,129.551 357.5,62.697 262.69,62.697 262.69,424.706 424.354,424.706 "/>
<polygon style="fill:#FFFFFF;" points="115.047,436.069 410.334,436.069 410.334,140.914 343.48,74.061 115.047,74.061 "/>
<polygon style="fill:#E1E1E3;" points="410.334,140.914 343.48,74.061 262.69,74.061 262.69,436.069 410.334,436.069 "/>
<polygon style="fill:#C8C6CC;" points="343.48,140.914 410.334,140.914 343.48,74.061 "/>
<rect x="163.169" y="179.961" style="fill:#00E8F2;" width="199.05" height="31.009"/>
<rect x="262.694" y="179.961" style="fill:#00D9E0;" width="99.525" height="31.009"/>
<rect x="163.169" y="179.961" style="fill:#0082D1;" width="199.05" height="22.389"/>
<rect x="262.694" y="179.961" style="fill:#005C95;" width="99.525" height="22.389"/>
<rect x="163.169" y="328.282" style="fill:#00E8F2;" width="199.05" height="31.009"/>
<rect x="262.694" y="328.282" style="fill:#00D9E0;" width="99.525" height="31.009"/>
<rect x="163.169" y="328.282" style="fill:#0082D1;" width="199.05" height="22.389"/>
<rect x="262.694" y="328.282" style="fill:#005C95;" width="99.525" height="22.389"/>
<rect x="163.169" y="254.127" style="fill:#00E8F2;" width="199.05" height="31.009"/>
<rect x="262.694" y="254.127" style="fill:#00D9E0;" width="99.525" height="31.009"/>
<rect x="163.169" y="254.127" style="fill:#0082D1;" width="199.05" height="22.389"/>
<rect x="262.694" y="254.127" style="fill:#005C95;" width="99.525" height="22.389"/>
<g>
</g>
<g>
</g>
<g>
</g>
<g>
</g>
<g>
</g>
<g>
</g>
<g>
</g>
<g>
</g>
<g>
</g>
<g>
</g>
<g>
</g>
<g>
</g>
<g>
</g>
<g>
</g>
<g>
</g>
</svg>
